<svg xmlns="http://www.w3.org/2000/svg" fill="none" viewBox="0 0 50.995999999999995 50.48780487804878" style="max-height: 500px" width="50.995999999999995" height="50.48780487804878">
<path fill="#115883" d="M219.106 56.072C218.11 56.072 217.612 55.52 217.612 54.416C217.612 54.152 217.732 53.39 217.972 52.13C218.212 50.87 218.332 49.82 218.332 48.98C218.332 48.8 218.308 48.632 218.26 48.476C218.908 48.224 219.796 48.098 220.924 48.098C220.984 48.266 221.014 48.554 221.014 48.962C221.014 49.37 220.882 50.186 220.618 51.41C220.354 52.634 220.222 53.432 220.222 53.804C220.222 54.176 220.318 54.362 220.51 54.362C221.038 54.362 221.548 54.176 222.04 53.804C222.076 53.36 222.316 51.554 222.76 48.386C223.18 48.218 223.936 48.134 225.028 48.134H225.37C225.226 48.698 224.986 50.126 224.65 52.418C224.326 54.698 224.092 56.144 223.948 56.756C223.804 57.368 223.606 57.908 223.354 58.376C223.114 58.844 222.814 59.192 222.454 59.42C222.106 59.66 221.752 59.822 221.392 59.906C221.032 59.99 220.564 60.032 219.988 60.032C219.424 60.032 218.884 59.846 218.368 59.474C217.864 59.114 217.612 58.802 217.612 58.538C217.612 58.37 217.822 58.112 218.242 57.764C218.674 57.416 219.034 57.2 219.322 57.116C219.934 57.728 220.384 58.394 220.672 59.114C220.984 59.114 221.26 58.742 221.5 57.998C221.74 57.254 221.902 56.162 221.986 54.722C221.698 55.01 221.26 55.31 220.672 55.622C220.084 55.922 219.562 56.072 219.106 56.072ZM228.521 54.236C228.521 54.56 228.575 54.722 228.683 54.722C228.755 54.722 229.031 54.608 229.511 54.38L229.727 54.272L230.033 54.902C229.925 54.998 229.781 55.118 229.601 55.262C229.421 55.406 229.085 55.604 228.593 55.856C228.101 56.096 227.645 56.216 227.225 56.216C226.805 56.216 226.475 56.09 226.235 55.838C225.995 55.574 225.875 55.226 225.875 54.794C225.875 54.35 226.025 53.57 226.325 52.454C226.625 51.326 226.775 50.594 226.775 50.258C226.775 49.754 226.619 49.28 226.307 48.836L226.145 48.62L226.163 48.386C226.799 48.206 227.831 48.116 229.259 48.116C229.415 48.296 229.493 48.644 229.493 49.16C229.493 49.676 229.337 50.534 229.025 51.734C228.713 52.922 228.551 53.624 228.539 53.84C228.527 54.044 228.521 54.176 228.521 54.236ZM232.074 56.216C231.666 56.216 231.324 56.078 231.048 55.802C230.784 55.526 230.652 55.142 230.652 54.65C230.652 54.146 230.946 52.556 231.534 49.88C232.134 47.192 232.434 45.254 232.434 44.066L232.326 43.274C233.262 42.95 234.138 42.788 234.954 42.788C235.074 42.956 235.134 43.25 235.134 43.67C235.134 44.63 234.828 46.49 234.216 49.25C233.616 51.998 233.316 53.6 233.316 54.056C233.316 54.5 233.37 54.722 233.478 54.722L234.738 54.272L235.062 54.902C234.654 55.226 234.156 55.526 233.568 55.802C232.992 56.078 232.494 56.216 232.074 56.216Z"/>
<path fill="#115883" d="M194.692 56.126H194.584C194.584 55.106 194.746 53.852 195.07 52.364C195.406 50.876 195.736 49.472 196.06 48.152C196.396 46.82 196.564 45.842 196.564 45.218C195.796 45.71 195.148 46.226 194.62 46.766C194.392 46.646 194.188 46.472 194.008 46.244C193.828 46.004 193.702 45.8 193.63 45.632L193.522 45.38L196.708 43.454C197.62 43.298 198.664 43.22 199.84 43.22C199.972 43.544 200.038 43.952 200.038 44.444C200.038 44.936 199.876 45.866 199.552 47.234C199.24 48.59 198.922 50.072 198.598 51.68C198.274 53.276 198.112 54.614 198.112 55.694C197.572 55.982 196.432 56.126 194.692 56.126ZM208.938 53.66C208.626 53.66 208.326 53.636 208.038 53.588C207.93 54.356 207.876 55.034 207.876 55.622C207.276 55.934 206.148 56.09 204.492 56.09H204.258C204.258 55.454 204.414 54.398 204.726 52.922C204.258 52.862 203.718 52.832 203.106 52.832C202.494 52.832 201.972 52.892 201.54 53.012C201.12 53.132 200.898 53.192 200.874 53.192C200.694 53.192 200.484 53.06 200.244 52.796C200.004 52.52 199.884 52.286 199.884 52.094C199.872 51.902 199.938 51.704 200.082 51.5C202.746 47.756 204.672 45.098 205.86 43.526C206.796 43.358 208.002 43.256 209.478 43.22C209.658 43.46 209.748 43.802 209.748 44.246C209.748 44.69 209.688 45.224 209.568 45.848C209.46 46.472 209.28 47.336 209.028 48.44C208.776 49.532 208.59 50.384 208.47 50.996C208.758 51.02 209.028 51.032 209.28 51.032C209.544 51.032 209.736 50.942 209.856 50.762L210.144 50.276L211.08 50.618C210.852 51.842 210.588 52.646 210.288 53.03C209.964 53.45 209.514 53.66 208.938 53.66ZM202.818 50.672C202.95 50.66 203.178 50.654 203.502 50.654C203.838 50.654 204.402 50.678 205.194 50.726C205.926 47.882 206.298 46.064 206.31 45.272C205.266 46.556 204.102 48.356 202.818 50.672ZM212.917 56.216C212.413 56.216 212.023 56.078 211.747 55.802C211.483 55.514 211.351 55.142 211.351 54.686C211.351 54.218 211.531 53.822 211.891 53.498C212.263 53.162 212.701 52.994 213.205 52.994C213.721 52.994 214.111 53.132 214.375 53.408C214.651 53.672 214.789 54.032 214.789 54.488C214.789 54.944 214.603 55.346 214.231 55.694C213.871 56.042 213.433 56.216 212.917 56.216Z"/>
<g clip-path="url(#clip0_101_3644)">
<path fill="#C82327" d="M239.69 16.2969C237.671 16.1952 236.01 17.6921 235.939 19.815C235.872 21.856 237.598 23.6004 239.372 23.5261C241.315 23.672 243.049 21.9916 243.134 20.104C243.178 19.1397 242.84 18.1973 242.194 17.4835C241.548 16.7698 240.648 16.343 239.69 16.2969ZM239.524 23.158C238.885 23.1576 238.26 22.966 237.728 22.6075C237.197 22.249 236.784 21.7397 236.541 21.1444C236.298 20.5491 236.236 19.8945 236.363 19.2638C236.491 18.633 236.801 18.0545 237.256 17.6018C237.71 17.149 238.288 16.8423 238.916 16.7207C239.544 16.599 240.194 16.6679 240.783 16.9186C241.372 17.1692 241.874 17.5903 242.225 18.1285C242.575 18.6666 242.759 19.2975 242.753 19.9411C242.743 20.7968 242.399 21.6142 241.794 22.2162C241.19 22.8182 240.374 23.1566 239.524 23.158Z" clip-rule="evenodd" fill-rule="evenodd"/>
<path fill="#C82227" d="M240.582 19.9856C241.195 19.6636 241.351 19.1458 241.206 18.5443C241.07 17.9794 240.576 17.8231 240.084 17.7827C239.498 17.7346 238.905 17.7666 238.315 17.7572C238.162 17.7572 238.103 17.809 238.104 17.9672C238.107 19.2607 238.107 20.5548 238.104 21.8496C238.104 21.9984 238.147 22.0699 238.308 22.069C238.47 22.068 238.537 22.0275 238.527 21.8628C238.518 21.7263 238.527 21.5888 238.527 21.4514C238.527 20.044 238.527 20.044 239.922 20.1447C239.952 20.1447 239.983 20.1447 240.016 20.1503C240.369 20.1983 240.611 20.3612 240.632 20.7538C240.649 21.0729 240.672 21.3911 240.689 21.7093C240.709 22.0661 240.843 22.2544 241.258 22.0906C240.875 21.4344 241.384 20.5269 240.582 19.9856ZM240.346 19.6777C240.025 19.7935 239.691 19.7719 239.359 19.7719C238.525 19.7719 238.525 19.7719 238.525 18.9538C238.525 18.1357 238.525 18.1253 239.352 18.1272C239.684 18.1272 240.018 18.1009 240.34 18.2166C240.489 18.2713 240.617 18.3704 240.708 18.5006C240.798 18.6307 240.847 18.7857 240.848 18.9448C240.849 19.1038 240.801 19.2592 240.711 19.39C240.621 19.5209 240.494 19.621 240.346 19.6768V19.6777Z" clip-rule="evenodd" fill-rule="evenodd"/>
<path fill="#CD2227" d="M151.674 12.8412C151.677 15.4565 151.682 18.0724 151.687 20.6889C151.811 20.7699 151.951 20.7341 152.084 20.7341C156.788 20.7341 161.493 20.7341 166.197 20.7341C166.33 20.7341 166.47 20.7708 166.594 20.6889L166.611 12.8327C167.086 12.7263 167.579 12.7263 168.054 12.8327C168.054 20.0685 168.051 27.304 168.047 34.5391C168.047 35.1642 168.052 35.7884 168.054 36.4135C167.608 36.5154 167.146 36.5206 166.699 36.4286V36.4333C166.605 36.2789 166.651 36.1066 166.651 35.9437C166.648 31.5768 166.646 27.2095 166.646 22.8419C166.646 22.6781 166.692 22.5068 166.601 22.3505C165.604 22.3449 164.605 22.3345 163.607 22.3345C159.826 22.3345 156.045 22.3345 152.264 22.3345C152.099 22.3345 151.935 22.3524 151.769 22.3628C151.676 22.519 151.724 22.6913 151.724 22.8551C151.72 27.2484 151.719 31.6418 151.719 36.0351C151.719 36.1998 151.759 36.3702 151.679 36.5303C151.305 36.5303 150.921 36.5124 150.543 36.535C150.275 36.551 150.193 36.4465 150.226 36.197C150.232 36.1058 150.232 36.0142 150.226 35.923C150.226 28.2241 150.226 20.5254 150.226 12.8271C150.713 12.7423 151.194 12.7113 151.674 12.8412Z" clip-rule="evenodd" fill-rule="evenodd"/>
<path fill="#CD2227" d="M218.284 20.462C218.276 20.4912 218.254 20.5241 218.261 20.5495C218.547 21.6284 217.942 22.3213 217.274 23.0396C215.137 25.3367 213.032 27.6639 210.922 29.9854C209.437 31.6207 207.965 33.2672 206.432 34.975H218.289C218.374 35.4889 218.374 36.0135 218.289 36.5274H204.368C204.303 35.9489 204.305 35.3647 204.374 34.7867L216.149 21.8854H204.362C204.277 21.4326 204.348 20.9751 204.323 20.5204C204.314 20.3424 204.396 20.2718 204.568 20.2822C204.662 20.2878 204.75 20.2822 204.841 20.2822C209.144 20.2822 213.444 20.2822 217.741 20.2822C217.93 20.285 218.183 20.1626 218.284 20.462Z" clip-rule="evenodd" fill-rule="evenodd"/>
<path fill="#085782" d="M116.021 36.4003C116.029 34.0574 116.036 31.7142 116.041 29.3707C116.041 28.4735 116.029 27.5773 116.021 26.6801C116.108 26.4607 116.011 26.2226 116.088 26.0023C116.202 24.496 116.848 23.2232 117.93 22.2177C119.607 20.6616 121.622 19.915 123.907 20.0647C126.738 20.253 129.38 22.5068 129.943 25.3828C129.967 25.4696 129.999 25.5543 130.037 25.636C130.112 25.7876 130.022 25.9646 130.108 26.1152V36.5039C129.64 36.6639 129.155 36.5575 128.68 36.5632C128.45 36.5632 128.529 36.3372 128.528 36.2035C128.521 35.3045 128.528 34.4045 128.528 33.5054C128.528 31.2799 128.528 29.0547 128.528 26.8298C128.528 26.6641 128.56 26.4946 128.491 26.3327C128.345 24.8547 127.612 23.7278 126.476 22.8108C125.728 22.2093 124.916 21.8092 123.968 21.6858C123.497 21.6223 123.019 21.6223 122.547 21.6858C120.406 21.86 118.499 23.5508 117.835 25.7151C117.679 26.2693 117.605 26.844 117.618 27.42C117.613 30.3341 117.613 33.2481 117.618 36.1621C117.623 36.2377 117.633 36.3129 117.647 36.3871C117.117 36.5398 116.555 36.5444 116.021 36.4003Z" clip-rule="evenodd" fill-rule="evenodd"/>
<path fill="#CD2227" d="M195.566 12.2713C195.893 12.2628 196.221 12.2553 196.545 12.2458C196.756 12.2374 196.98 12.1282 197.171 12.3155C197.159 12.6026 197.142 12.8907 197.139 13.1779C197.139 13.802 197.139 13.802 196.541 13.8369C196.26 13.9159 195.972 13.8048 195.699 13.9018C193.234 14.0901 191.568 15.9212 191.442 18.2832C191.356 18.8405 191.421 19.4016 191.404 19.9608C191.396 20.2677 191.635 20.1821 191.796 20.1821C193.439 20.1868 195.084 20.1821 196.728 20.1915C196.874 20.1915 197.06 20.086 197.173 20.2856C197.163 20.6961 197.129 21.1065 197.148 21.5151C197.162 21.8248 197.055 21.8917 196.764 21.8917C195.113 21.8785 193.462 21.8917 191.81 21.8794C191.53 21.8794 191.427 21.935 191.428 22.2475C191.441 26.9729 191.446 31.6982 191.443 36.4235C190.906 36.5288 190.355 36.531 189.817 36.4301C189.817 30.5744 189.828 24.7188 189.809 18.8622C189.809 17.7042 189.946 16.5773 190.474 15.5587C191.316 13.9253 192.618 12.8182 194.471 12.4727C194.679 12.4332 194.884 12.3889 195.091 12.3475C195.241 12.2684 195.416 12.356 195.566 12.2713Z" clip-rule="evenodd" fill-rule="evenodd"/>
<path fill="#085782" d="M110.571 20.6946C110.946 20.6946 111.331 20.72 111.708 20.6946C112.034 20.6702 112.108 20.7831 112.107 21.1004C112.095 24.4264 112.1 27.7525 112.1 31.0795V36.4343C111.589 36.5209 111.068 36.5209 110.557 36.4343L110.563 36.439C110.47 36.3148 110.513 36.1726 110.513 36.0399C110.513 31.0547 110.513 26.0705 110.513 21.0872C110.512 20.9554 110.46 20.8104 110.571 20.6946Z" clip-rule="evenodd" fill-rule="evenodd"/>
<path fill="#085782" d="M146.357 26.7015C146.357 24.7038 146.35 22.707 146.365 20.7093C146.365 20.377 146.293 20.2631 145.942 20.2688C144.609 20.2904 143.276 20.2688 141.943 20.2801C141.459 20.2801 140.973 20.2443 140.492 20.3074C140.057 20.3441 139.618 20.3582 139.182 20.4222C137.439 20.6792 135.854 21.3109 134.581 22.5668C133.218 23.9102 132.377 25.5323 132.189 27.4669C132.142 27.9527 132.142 28.4421 132.189 28.928C132.261 29.2782 132.205 29.6378 132.304 29.9927C132.517 30.7609 132.7 31.5433 133.1 32.2352C133.632 33.176 134.35 33.9979 135.208 34.6509C136.025 35.2738 136.943 35.749 137.921 36.0555C138.882 36.352 139.861 36.4255 140.853 36.4556C141.646 36.5196 142.443 36.4603 143.234 36.4857C143.742 36.5027 144.251 36.4236 144.755 36.5309C144.794 37.3555 144.791 38.1816 144.747 39.0059C144.677 39.1575 144.767 39.3317 144.679 39.4766C144.465 40.8775 143.925 42.1183 142.852 43.0691C142.054 43.7752 141.14 44.2591 140.046 44.3174C139.489 44.3847 138.927 44.3847 138.371 44.3174C138.177 44.3167 137.984 44.299 137.794 44.2647C136.525 44.0247 135.582 43.2715 134.813 42.2962C134.214 41.5374 133.784 40.6722 133.741 39.6677C133.66 39.5152 133.741 39.3401 133.674 39.1857C133.697 38.9033 133.592 38.7772 133.291 38.8092C133.051 38.8426 132.807 38.8426 132.567 38.8092C132.121 38.7339 131.971 38.9184 132.029 39.3392C132.113 39.4908 132.024 39.6687 132.1 39.8212C132.094 39.9415 132.102 40.062 132.121 40.1808C132.495 41.576 133.137 42.8347 134.12 43.8882C135.336 45.1901 136.849 45.8727 138.635 45.9499C139.651 45.9941 140.651 45.9442 141.603 45.5658C144.409 44.4521 145.916 42.3301 146.322 39.3627C146.377 39.1989 146.35 39.0295 146.35 38.8638C146.355 34.8113 146.358 30.7572 146.357 26.7015ZM144.219 34.8919C142.722 34.8392 141.212 35.0058 139.723 34.7865C137.119 34.3995 135.061 33.1898 134.219 30.5303C133.378 27.8708 133.835 25.4466 135.927 23.4978C137.204 22.3069 138.816 21.9454 140.501 21.8974C141.773 21.8579 143.047 21.8974 144.321 21.8758C144.641 21.8701 144.723 21.9624 144.721 22.2806C144.707 24.3093 144.713 26.3381 144.713 28.3669C144.713 30.3806 144.699 32.3943 144.726 34.408C144.731 34.8269 144.603 34.9041 144.219 34.89V34.8919Z" clip-rule="evenodd" fill-rule="evenodd"/>
<path fill="#085782" d="M70.8695 25.6022C70.8695 24.9551 70.8695 24.308 70.8695 23.6609C70.7965 23.5018 70.8695 23.323 70.803 23.1639C70.7684 23.001 70.7254 22.84 70.7001 22.6753C70.2174 19.514 68.6253 17.0126 66.1706 15.0497C64.3558 13.5962 62.2276 12.9136 59.9582 12.618C59.801 12.5531 59.6261 12.6303 59.4718 12.5531L58.2285 12.5258C56.5578 12.4674 54.8861 12.5079 53.2154 12.5069C53.1892 12.5069 53.1639 12.5371 53.1387 12.5531V36.4295C53.7645 36.5537 54.3969 36.4784 55.0246 36.4784C56.4278 36.4784 57.831 36.5208 59.2342 36.4558C59.7543 36.3852 60.2772 36.4342 60.802 36.3551C62.4035 36.1103 63.904 35.6076 65.2829 34.75C66.5242 33.978 67.6215 33.0403 68.5083 31.8645C69.8049 30.1502 70.5159 28.2052 70.8105 26.0889C70.8685 25.9335 70.7965 25.7565 70.8695 25.6022ZM63.2669 34.3828C62.0299 34.9301 60.6958 35.2205 59.3445 35.2367C57.9049 35.264 56.4642 35.2367 55.0255 35.2574C54.685 35.263 54.5971 35.1736 54.5989 34.83C54.612 31.4409 54.6064 28.0574 54.6064 24.672C54.6064 21.3017 54.6139 17.9305 54.598 14.5602C54.598 14.177 54.6915 14.0735 55.0713 14.0895C56.6308 14.1441 58.193 14.0104 59.7487 14.1836C64.2202 14.675 68.614 18.308 69.2567 23.4096C69.8545 28.1515 67.4756 32.5056 63.2669 34.3828Z" clip-rule="evenodd" fill-rule="evenodd"/>
<path fill="#085782" d="M107.022 27.9257C106.955 27.4315 106.922 26.9297 106.816 26.4439C106.268 23.9312 104.87 22.0908 102.497 21.0655C101.18 20.5007 99.7746 20.3519 98.3573 20.3058C96.6089 20.2446 94.8596 20.2908 93.1112 20.2813C93.057 20.2813 93.0327 20.3199 92.998 20.3454C92.998 21.427 93.0046 22.5106 93.0037 23.5904C93.0037 30.98 93.0018 38.3689 92.998 45.7572C93.5038 45.865 94.0264 45.865 94.5322 45.7572C94.5322 44.6143 94.5266 43.4714 94.5322 42.3295C94.5372 40.3644 94.5437 38.3997 94.5519 36.4352C94.7062 36.3411 94.8746 36.3929 95.0364 36.39C96.2348 36.3684 97.434 36.423 98.6333 36.3609C99.1207 36.2837 99.6137 36.3383 100.109 36.2545C101.789 35.9863 103.351 35.2143 104.589 34.0393C106.101 32.6102 106.873 30.814 107.022 28.74C107.064 28.4702 107.064 28.1955 107.022 27.9257ZM103.017 33.4481C101.774 34.4046 100.325 34.7397 98.7998 34.7783C97.4967 34.8113 96.1927 34.7783 94.8896 34.799C94.5781 34.8037 94.521 34.6974 94.5229 34.4121C94.5341 32.3532 94.5285 30.2934 94.5285 28.2354C94.5285 26.2067 94.535 24.1779 94.5219 22.1491C94.5219 21.8168 94.5696 21.6718 94.9532 21.6869C96.4499 21.7434 97.9588 21.5777 99.449 21.7951C101.914 22.1548 103.927 23.2384 104.931 25.67C106.082 28.4604 105.252 31.7262 103.017 33.4481Z" clip-rule="evenodd" fill-rule="evenodd"/>
<path fill="#CD2227" d="M185.211 36.1744C185.211 32.4006 185.211 28.6264 185.211 24.8519C185.223 24.7459 185.213 24.6383 185.181 24.5365C184.925 23.1244 184.225 21.989 183.036 21.1841C182.088 20.5421 181.003 20.3632 179.888 20.3067C179.725 20.2531 179.557 20.2794 179.392 20.2794C177.606 20.2794 175.82 20.2794 174.035 20.2794C173.716 20.2794 173.398 20.2794 173.081 20.2794C172.908 20.2794 172.829 20.3444 172.838 20.5195C172.864 20.9742 172.787 21.4308 172.881 21.8827L180.437 21.8987C180.624 21.9712 180.824 21.8761 181.006 21.9655C181.204 22.0033 181.399 22.0571 181.589 22.1265C182.749 22.6452 183.428 23.5386 183.632 24.8049C183.683 25.1165 183.666 25.2878 183.249 25.2821C181.445 25.2548 179.641 25.2586 177.836 25.2737C175.94 25.2897 174.221 25.7011 172.843 27.1961C171.663 28.4755 171.264 29.9573 171.456 31.601C171.596 32.7957 172.098 33.9018 172.852 34.8564C173.606 35.811 174.591 36.4569 175.805 36.4851C178.927 36.5491 182.05 36.5246 185.172 36.535C185.236 36.4183 185.211 36.294 185.211 36.1744ZM183.318 35.1643C181.26 35.1492 179.195 35.1558 177.134 35.1473C176.633 35.1417 176.135 35.0711 175.653 34.9374C173.782 34.4337 172.78 32.9256 172.927 30.8469C172.994 29.7697 173.463 28.7578 174.24 28.0138C175.017 27.2698 176.044 26.8486 177.117 26.8346C179.175 26.8073 181.24 26.8346 183.301 26.8195C183.618 26.8195 183.675 26.9287 183.669 27.2111C183.656 28.4773 183.663 29.7436 183.663 31.0098C183.663 32.276 183.655 33.5422 183.67 34.8075C183.673 35.0861 183.602 35.1662 183.318 35.1643Z" clip-rule="evenodd" fill-rule="evenodd"/>
<path fill="#CD2227" d="M235.35 36.1735C235.35 32.4003 235.35 28.6264 235.35 24.8519C235.363 24.7462 235.353 24.6389 235.321 24.5375C235.065 23.1253 234.365 21.989 233.176 21.1841C232.228 20.5421 231.142 20.3632 230.028 20.3067C229.865 20.2531 229.697 20.2794 229.532 20.2794C227.746 20.2794 225.96 20.2794 224.174 20.2794C223.856 20.2794 223.538 20.2794 223.22 20.2794C223.048 20.2794 222.968 20.3444 222.978 20.5195C223.004 20.9742 222.927 21.4308 223.02 21.8827C225.552 21.8827 228.085 21.8714 230.617 21.8893C231.414 21.8874 232.182 22.1881 232.769 22.7314C233.355 23.2746 233.716 24.0205 233.78 24.8199C233.81 25.1654 233.753 25.285 233.372 25.2803C231.568 25.2589 229.764 25.2567 227.959 25.2737C226.051 25.2897 224.323 25.7143 222.951 27.2271C221.795 28.5009 221.404 29.9733 221.595 31.6C221.737 32.7957 222.238 33.9009 222.992 34.8564C223.746 35.812 224.73 36.4569 225.944 36.4851C229.067 36.5491 232.19 36.5246 235.313 36.535C235.375 36.4183 235.35 36.294 235.35 36.1735ZM233.432 35.1643C231.416 35.1492 229.4 35.1549 227.384 35.1511C226.853 35.1485 226.324 35.0786 225.811 34.943C223.94 34.4516 222.929 32.9482 223.066 30.8657C223.128 29.7884 223.592 28.7745 224.366 28.0271C225.139 27.2797 226.165 26.8541 227.237 26.8355C229.314 26.8054 231.391 26.8355 233.467 26.8204C233.77 26.8204 233.811 26.9315 233.808 27.1914C233.797 28.4576 233.808 29.7238 233.808 30.99C233.808 32.2562 233.798 33.5224 233.815 34.7887C233.814 35.0918 233.725 35.1662 233.432 35.1643Z" clip-rule="evenodd" fill-rule="evenodd"/>
<path fill="#085782" d="M89.7959 27.7711C89.7173 27.6167 89.7959 27.4406 89.7304 27.2843C89.6882 27.1556 89.6535 27.0246 89.6266 26.8918C89.3843 25.2697 88.6546 23.8745 87.5508 22.7052C85.6275 20.6671 83.2673 19.7765 80.4628 20.1352C78.0221 20.4468 76.1419 21.6697 74.719 23.6467C73.8771 24.8103 73.488 26.1339 73.4094 27.5592C73.3635 28.0754 73.3635 28.5946 73.4094 29.1107C73.4716 30.1007 73.7279 31.0686 74.1634 31.9585C75.0137 33.7143 76.3149 35.0379 78.0455 35.8711C79.8081 36.7399 81.8314 36.908 83.7116 36.3418C86.0334 35.664 87.7556 34.2236 88.8857 32.0696C89.5985 30.7196 89.8174 29.2717 89.7959 27.7711ZM81.6386 35.1678C78.822 35.182 74.8893 32.8981 74.9342 28.3745C74.9725 24.6088 77.8575 21.616 81.546 21.6075C85.213 21.5991 88.2234 24.6201 88.2458 28.3246C88.2645 31.3824 85.9595 35.1462 81.6386 35.1678Z" clip-rule="evenodd" fill-rule="evenodd"/>
<path fill="#CD2227" d="M202.272 36.434H200.732V20.6934H202.269L202.272 36.434Z" clip-rule="evenodd" fill-rule="evenodd"/>
<path fill="#0A5782" d="M112.287 13.5113C112.287 13.7026 112.231 13.8896 112.125 14.0487C112.02 14.2078 111.87 14.3319 111.694 14.4052C111.519 14.4785 111.326 14.4978 111.139 14.4606C110.953 14.4234 110.781 14.3314 110.647 14.1962C110.513 14.0611 110.421 13.8888 110.384 13.7012C110.347 13.5136 110.366 13.3192 110.438 13.1425C110.511 12.9658 110.634 12.8147 110.792 12.7084C110.95 12.6021 111.136 12.5454 111.326 12.5454C111.581 12.5454 111.825 12.6471 112.005 12.8283C112.185 13.0094 112.286 13.2551 112.287 13.5113Z" clip-rule="evenodd" fill-rule="evenodd"/>
<path fill="#CD2227" d="M37.6522 25.137V7.64816C35.3265 5.22455 32.5389 3.29803 29.4561 1.98389C26.3734 0.669745 23.0589 -0.00500113 19.7109 2.7906e-05V21.3835C22.7652 22.614 29.1778 24.7501 37.6522 25.137Z" clip-rule="evenodd" fill-rule="evenodd"/>
<path fill="#CD2227" d="M40.207 39.2291C42.7206 35.5996 44.2235 31.3594 44.5597 26.9482C43.1273 27.2994 41.6731 27.5541 40.207 27.7108V39.2291Z" clip-rule="evenodd" fill-rule="evenodd"/>
<path fill="#CD2227" d="M19.7109 25.1953V50.0009C23.0589 50.0059 26.3734 49.3312 29.4561 48.0171C32.5389 46.7029 35.3265 44.7764 37.6522 42.3528V27.9019C32.9103 28.0987 26.9374 27.4886 19.7109 25.1953Z" clip-rule="evenodd" fill-rule="evenodd"/>
<path fill="#CD2227" d="M44.6121 23.9422C44.4188 19.2211 42.8906 14.6536 40.207 10.7764V25.1981C41.6345 25.1981 43.1126 25.1519 44.6346 25.039C47.1332 25.0041 51.7946 23.9968 51.7946 23.9968C49.5617 24.347 46.3315 24.1126 44.6121 23.9422Z" clip-rule="evenodd" fill-rule="evenodd"/>
<path fill="#115883" d="M16.5938 0.175293V50.0002C16.5938 50.0002 8.53946 49.5549 3.60115 45.3175C3.60115 45.3175 6.20829 42.9414 7.48613 38.7775C8.76397 34.6135 8.15966 32.5688 7.14936 31.359C6.13906 30.1493 2.51695 26.7978 1.81722 22.2969C1.65539 21.3978 1.78542 20.8584 1.19514 21.2246C0.604861 21.5908 0.721794 21.4054 0.752664 20.6748C0.783534 19.9443 0.523476 18.1932 0.138065 17.2631C-0.247346 16.333 0.252191 15.6448 0.5637 15.6966C0.87521 15.7483 1.37662 16.0072 1.40562 15.6966C1.43462 15.3859 1.23349 1.57519 16.5938 0.175293Z" clip-rule="evenodd" fill-rule="evenodd"/>
</g>
<defs>
<clipPath id="clip0_101_3644">
<rect fill="white" height="50" width="243.137"/>
</clipPath>
</defs>
</svg>